<?xml version="1.0" encoding="UTF-8"?>
<svg xmlns="http://www.w3.org/2000/svg" xmlns:xlink="http://www.w3.org/1999/xlink" width="75pt" height="58pt" viewBox="0 0 75 58" version="1.1">
<g id="surface1">
<path style=" stroke:none;fill-rule:evenodd;fill:rgb(92.89856%,10.998535%,14.099121%);fill-opacity:1;" d="M 44.167969 9.0625 L 50.824219 9.0625 L 50.824219 15.71875 L 44.167969 15.71875 L 44.167969 9.0625 "/>
<path style=" stroke:none;fill-rule:evenodd;fill:rgb(0%,65.098572%,31.399536%);fill-opacity:1;" d="M 30.855469 22.371094 L 37.507813 22.371094 L 37.507813 15.71875 L 44.167969 15.71875 L 44.167969 22.371094 L 50.71875 22.371094 L 50.71875 29.03125 L 44.167969 29.03125 L 44.167969 35.679688 L 37.507813 35.679688 L 37.507813 29.03125 L 30.855469 29.03125 L 30.855469 35.679688 L 24.195313 35.679688 L 24.195313 15.71875 L 30.855469 15.71875 L 30.855469 22.371094 "/>
<path style=" stroke:none;fill-rule:evenodd;fill:rgb(92.89856%,10.998535%,14.099121%);fill-opacity:1;" d="M 10.101563 40.34375 L 11.542969 40.34375 L 11.542969 42.898438 L 14.234375 42.898438 L 14.234375 40.34375 L 15.675781 40.34375 L 15.675781 46.84375 L 14.234375 46.84375 L 14.234375 44.023438 L 11.542969 44.023438 L 11.542969 46.84375 L 10.101563 46.84375 Z M 17.5625 44.890625 C 18.710938 44.890625 19.859375 44.890625 21.003906 44.890625 C 21.203125 40.910156 15.839844 40.90625 16.1875 44.871094 C 16.25 47.511719 20.265625 47.960938 20.890625 45.394531 C 20.398438 45.394531 19.90625 45.394531 19.417969 45.394531 C 18.964844 46.296875 17.527344 46.183594 17.5625 44.890625 Z M 17.589844 43.988281 L 19.535156 43.988281 C 19.554688 42.71875 17.671875 42.65625 17.589844 43.988281 Z M 21.660156 42.078125 L 21.660156 46.925781 L 23.015625 46.925781 L 23.015625 44.492188 C 22.980469 43.417969 23.574219 43.125 24.640625 43.160156 L 24.640625 41.96875 C 23.875 42.003906 23.21875 42.121094 22.960938 42.546875 L 22.960938 42.097656 Z M 27.148438 41.933594 C 29.019531 41.933594 29.566406 43.363281 29.566406 44.496094 C 29.566406 45.628906 29.019531 47.0625 27.148438 47.0625 C 25.28125 47.0625 24.730469 45.628906 24.730469 44.496094 C 24.730469 43.363281 25.277344 41.933594 27.148438 41.933594 Z M 27.148438 43.003906 C 27.964844 43.003906 28.199219 43.835938 28.199219 44.496094 C 28.199219 45.15625 27.960938 45.992188 27.148438 45.992188 C 26.335938 45.992188 26.097656 45.15625 26.097656 44.496094 C 26.097656 43.835938 26.335938 43.003906 27.148438 43.003906 "/>
<path style=" stroke:none;fill-rule:evenodd;fill:rgb(0%,65.098572%,31.399536%);fill-opacity:1;" d="M 30.527344 40.34375 L 35.023438 40.34375 L 35.023438 41.410156 L 31.964844 41.410156 L 31.964844 43.28125 L 34.722656 43.28125 L 34.722656 44.390625 L 31.964844 44.390625 L 31.964844 46.847656 L 30.527344 46.847656 L 30.527344 40.34375 "/>
<path style=" stroke:none;fill-rule:evenodd;fill:rgb(0%,65.098572%,31.399536%);fill-opacity:1;" d="M 35.675781 42.054688 L 36.984375 42.054688 L 36.984375 46.84375 L 35.675781 46.84375 L 35.675781 42.054688 "/>
<path style=" stroke:none;fill-rule:evenodd;fill:rgb(0%,65.098572%,31.399536%);fill-opacity:1;" d="M 35.675781 40.34375 L 36.984375 40.34375 L 36.984375 41.617188 L 35.675781 41.617188 L 35.675781 40.34375 "/>
<path style=" stroke:none;fill-rule:evenodd;fill:rgb(0%,65.098572%,31.399536%);fill-opacity:1;" d="M 38.019531 46.914063 L 39.355469 46.914063 L 39.355469 43.933594 C 39.355469 42.914063 40.984375 42.542969 40.984375 43.933594 L 40.984375 46.945313 L 42.359375 46.945313 L 42.359375 43.820313 C 42.304688 42.386719 41.136719 41.511719 39.71875 42.261719 C 39.550781 42.351563 39.417969 42.507813 39.304688 42.6875 L 39.304688 42.074219 L 38.019531 42.074219 L 38.019531 46.914063 "/>
<path style=" stroke:none;fill-rule:evenodd;fill:rgb(0%,65.098572%,31.399536%);fill-opacity:1;" d="M 51.566406 41.933594 C 53.433594 41.933594 53.980469 43.363281 53.980469 44.496094 C 53.980469 45.628906 53.433594 47.0625 51.566406 47.0625 C 49.695313 47.0625 49.148438 45.628906 49.148438 44.496094 C 49.148438 43.363281 49.695313 41.933594 51.566406 41.933594 Z M 51.566406 43.003906 C 52.378906 43.003906 52.617188 43.835938 52.617188 44.496094 C 52.617188 45.15625 52.378906 45.992188 51.566406 45.992188 C 50.75 45.992188 50.511719 45.15625 50.511719 44.496094 C 50.511719 43.835938 50.75 43.003906 51.566406 43.003906 "/>
<path style=" stroke:none;fill-rule:evenodd;fill:rgb(0%,65.098572%,31.399536%);fill-opacity:1;" d="M 47.449219 44.601563 L 48.90625 44.601563 C 48.542969 46.582031 47.285156 47.257813 45.417969 47.039063 C 44.242188 46.761719 43.472656 46.0625 43.144531 44.90625 C 42.8125 43.722656 42.859375 42.265625 43.679688 41.292969 C 45.164063 39.523438 48.503906 39.589844 48.957031 42.476563 L 47.476563 42.476563 C 46.628906 40.03125 43.949219 41.789063 44.519531 44.261719 C 44.695313 45.03125 45.144531 45.816406 46.019531 45.902344 C 46.390625 45.9375 46.722656 45.789063 46.976563 45.542969 C 47.226563 45.296875 47.398438 44.953125 47.449219 44.601563 "/>
<path style=" stroke:none;fill-rule:evenodd;fill:rgb(0%,65.098572%,31.399536%);fill-opacity:1;" d="M 54.601563 42.078125 L 54.601563 46.925781 L 55.957031 46.925781 L 55.957031 44.492188 C 55.925781 43.417969 56.515625 43.125 57.582031 43.160156 L 57.582031 41.96875 C 56.816406 42.003906 56.164063 42.121094 55.902344 42.546875 L 55.902344 42.097656 L 54.601563 42.078125 "/>
<path style=" stroke:none;fill-rule:evenodd;fill:rgb(0%,65.098572%,31.399536%);fill-opacity:1;" d="M 58.035156 42.089844 L 58.035156 48.558594 L 59.375 48.558594 L 59.375 46.09375 C 59.6875 46.574219 60.203125 46.902344 60.746094 46.9375 C 63.394531 47.101563 63.375 41.617188 60.507813 42.007813 C 60.0625 42.070313 59.691406 42.285156 59.386719 42.660156 L 59.386719 42.089844 Z M 61.34375 44.46875 C 61.273438 42.746094 59.390625 42.679688 59.433594 44.542969 C 59.480469 46.488281 61.417969 46.320313 61.34375 44.46875 "/>
<path style=" stroke:none;fill-rule:evenodd;fill:rgb(92.89856%,10.998535%,14.099121%);fill-opacity:1;" d="M 63.28125 45.269531 L 64.894531 45.269531 L 64.894531 46.964844 L 63.28125 46.964844 L 63.28125 45.269531 "/>
</g>
</svg>
